{"accessors":[{"bufferView":0,"componentType":5126,"count":8,"max":[1.0,-0.5,4.4],"min":[-1.0,-1.0,3.8],"type":"VEC3"},{"bufferView":1,"componentType":5123,"count":36,"type":"SCALAR"},{"bufferView":2,"componentType":5126,"count":8,"max":[0.5,-0.5,5.0],"min":[-0.5,-1.0,4.4],"type":"VEC3"},{"bufferView":3,"componentType":5123,"count":30,"type":"SCALAR"}],"asset":{"generator":"emg v0.1.0","minVersion":"2.0","version":"2.0"},"bufferViews":[{"buffer":0,"byteLength":96,"byteOffset":0,"target":34962},{"buffer":0,"byteLength":72,"byteOffset":96,"target":34963},{"buffer":0,"byteLength":96,"byteOffset":168,"target":34962},{"buffer":0,"byteLength":60,"byteOffset":264,"target":34963}],"buffers":[{"byteLength":324,"uri":"data:application/octet-stream;base64,"}],"materials":[{"name":"Red","pbrMetallicRoughness":{"baseColorFactor":[1.0,0.0,0.0,1.0],"metallicFactor":0.0,"roughnessFactor":0.5}},{"name":"Black","pbrMetallicRoughness":{"baseColorFactor":[0.1,0.1,0.1,1.0],"metallicFactor":0.0,"roughnessFactor":0.5}}],"meshes":[{"name":"Fortress Wall Battlement","primitives":[{"attributes":{"POSITION":0},"indices":1,"material":0},{"attributes":{"POSITION":2},"indices":3,"material":1}]}],"nodes":[{"mesh":0,"name":"Fortress Wall Battlement"}],"scene":0,"scenes":[{"name":"A name for a scene","nodes":[0]}]}
